<?xml version="1.0" encoding="UTF-8"?>
<svg xmlns="http://www.w3.org/2000/svg" viewBox="0 0 1095 1095" width="728" height="728">
<path d="M527.69 43.43C535.25 42.78 542.92 43 550.5 43.03C560.82 43.07 571.23 42.97 581.5 44.18C648.21 52.09 712.09 85.54 755.88 136.66C768.03 150.84 779.1 166.03 788.12 182.39C793.14 191.51 796.5 205.43 803.96 212.54C812.88 221.04 833.46 219.06 845.45 221.22C854.84 222.91 863.85 226.71 872.91 229.55C887.44 234.11 901.21 239.31 914.39 247.07C941.1 262.78 960.79 277.93 982.5 300.01C1016.86 334.95 1037.22 368.68 1051.65 415.76C1054.34 424.51 1056.46 433.48 1057.81 442.53C1058.5 447.14 1058.49 451.86 1059.2 456.46C1060.64 465.75 1063.7 475.08 1064.02 484.5C1064.57 500.52 1061.95 515.85 1059.21 531.55C1056.3 548.29 1053.53 565.34 1047.97 581.47C1036.18 615.62 1020.51 642.27 997.91 670.36C990.79 679.21 983.56 687.98 975.07 695.56C971.71 698.55 964.92 701.65 963.61 706.18C962.34 710.56 964.74 716.54 965.54 720.88C966.96 728.62 968.11 736.68 968.87 744.5C971.44 771 970.61 797.26 965.87 823.48C962.81 840.36 957.42 856.8 951.34 872.78C917.42 961.92 839.51 1026.46 746.28 1045.64C726.37 1049.74 706.82 1051.37 686.5 1051.43C677.89 1051.46 669.08 1052.05 660.53 1050.82C642.1 1048.16 619.68 1041.38 601.85 1035.59C589.63 1031.62 577.88 1026 566.57 1019.96C561.18 1017.08 554.68 1011.64 548.5 1010.97C542.05 1010.27 537.03 1014.33 531.63 1017.15C520.75 1022.86 509.68 1028.3 498.15 1032.59C466.66 1044.33 433.1 1051.3 399.5 1051.94C378.06 1052.34 356.09 1048.36 335.33 1043.29C267.38 1026.7 206.57 983.98 167.63 925.83C152.92 903.86 142.35 879.51 133.98 854.53C131.01 845.69 128.16 836.54 126.28 827.39C121.22 802.76 119.94 774.64 122.43 749.7C123.37 740.32 124.53 730.84 126.26 721.56C127.11 716.98 129.17 712.54 127.58 707.86C124.72 699.44 112.8 690.33 106.66 683.82C92.49 668.8 79.62 653.21 69.11 635.36C22.81 556.74 17.17 456.7 56.51 374.01C86.82 310.28 142.74 260.56 207.69 234.18C225.32 227.03 244.11 223.73 262.73 220.38C269.7 219.13 283.56 217.91 288.86 213.35C293.55 209.32 297.9 195.67 301.16 189.68C310.02 173.39 320.12 157.82 332.04 143.57C364.88 104.29 408.62 71.8 457.69 56.25C470.52 52.19 483.28 50.13 496.5 47.91C506.87 46.16 517.2 44.33 527.69 43.43ZM529.65 118.41C462.58 124.59 404.05 161.48 370.6 220.13C362.25 234.76 355.84 250.55 351.37 266.78C349.88 272.19 347.13 287.14 342.95 290.45C340.27 292.59 336.69 292.14 333.5 292.1C326.82 292.03 320.17 291.27 313.5 291.02C296.98 290.41 275.8 293.81 259.55 297.2C203.63 308.84 151.1 352.89 126.2 403.7C90.39 476.78 102.07 564.92 155.08 626.4C166.61 639.77 179.93 651.12 194.53 661C199.44 664.32 214.15 672.43 216.35 677.22C218 680.83 216.19 684.11 214.9 687.47C211.84 695.49 208.91 703.5 206.18 711.64C198.1 735.72 194.36 762.13 196.14 787.5C202.08 872.02 261.02 944.4 341.76 968.67C366.51 976.11 393.81 978.22 419.5 975.78C451.65 972.72 482.2 961.18 509.29 943.8C518.56 937.86 527.1 931.05 535.79 924.32C538.92 921.9 542.8 917.69 547.14 918.48C552.85 919.5 560.77 927.45 565.46 931.04C576.13 939.23 587.33 946.97 599.2 953.35C630.93 970.4 665.59 977.45 701.5 976.74C714.83 976.48 728.55 975.45 741.46 971.91C764.18 965.69 786.22 956.55 805.85 943.39C864.38 904.15 897.83 838.76 897.34 768.5C897.21 748.76 893 727.97 886.13 709.46C884.06 703.87 882.11 698.22 879.78 692.72C878.05 688.62 875.48 683.87 876.69 679.32C878.17 673.78 883.37 671.27 887.83 668.36C894.46 664.05 901.01 659.63 907.35 654.92C926.85 640.45 943.77 621.64 956.53 601.02C967.7 582.98 976.82 563.08 981.75 542.38C1002.62 454.79 965.48 367.19 889.3 320.19C863.84 304.48 829.41 293.12 799.5 292.13C787.2 291.72 774.81 292.04 762.5 292.12C758.04 292.15 751.49 293.18 748.18 289.29C744.67 285.17 742.37 269.52 740.75 263.64C736.46 248.07 729.44 233.03 721.49 219.01C683.33 151.72 606.86 111.31 529.65 118.41ZM357.5 809.16C350.85 811.62 345.2 816.28 338.78 819.31C330.49 823.22 320.62 824.91 311.53 823.75C301.52 822.47 290.95 817.9 283.55 810.97C277.58 805.37 273.86 797.12 270.78 789.7C262.45 769.65 259.78 747.25 269.61 727.13C277.28 711.43 292.24 702.68 309.5 700.98C315.47 700.4 321.52 700.35 327.5 699.87C329.99 699.67 334.07 700.14 336.18 698.65C341.37 694.97 345.57 683.42 348.14 677.61C355.44 661.09 363.11 643.8 367.7 626.29C369.81 618.26 368.28 608.56 362.22 602.28C358.95 598.9 354.56 596.58 351.26 593.24C348.72 590.67 346.57 587.07 344.33 584.23C332.81 569.62 332.94 545.48 338.3 528.72C344.42 509.59 361.38 493.87 381.55 491.25C389.26 490.24 397.03 493.03 404.5 491.72C408.17 487.58 408.94 480.96 410.32 475.71C413.31 464.43 415.84 453.12 418.37 441.73C421.47 427.74 425.91 414.17 429.99 400.47C436.29 379.36 441.33 357.79 447.21 336.56C450.61 324.28 453.32 311.71 456.8 299.4C458.14 294.66 458.37 288.03 463.43 285.83C469.37 283.24 478.13 284.82 484.5 284.8C500.51 284.75 516.52 285.27 532.5 285.32C557.89 285.39 583.14 286.01 608.5 286.06C616.11 286.07 634.37 284.29 640.38 288.07C646.15 291.7 647.44 299.35 649.1 305.47C652.18 316.8 656.02 327.95 659.38 339.2C668.04 368.19 677.61 396.91 686.64 425.79C690.5 438.14 694.44 450.49 698.8 462.67C700.55 467.56 701.93 472.63 704.16 477.33C708.84 487.12 719.13 491.96 727.83 497.63C744.61 508.57 766.16 520.25 770.74 541.56C773.94 556.47 769.38 571.55 759.89 583.34C754.95 589.49 748.3 594.07 744.79 601.34C738.87 613.63 741.89 629.59 745.36 642.23C748.87 655.01 754.85 667.44 761.83 678.68C764.92 683.64 768.01 689.19 772.63 692.92C782.47 700.84 797.66 703.83 808.79 710.67C837.22 728.13 848.11 757.29 838.91 789.45C829.3 823 798.86 842.19 764.68 833.71C758.03 832.06 751.83 829.22 746.19 825.35C742.35 822.72 737.49 818.25 732.54 818.37C726.37 818.53 717.03 826.02 711.37 828.89C700.54 834.37 687.69 838.1 675.5 836.05C668.26 834.82 661.75 831.01 656.42 826.08C653.47 823.35 649.83 817.38 645.48 817C641.93 816.7 638.05 819.93 635.04 821.53C629.15 824.65 622.83 827.01 616.43 828.84C595.32 834.87 572.82 830.18 555.62 816.93C536.16 801.94 514.48 771.57 520.35 745.75C523.02 734.03 529.32 723.83 538.83 716.37C544.43 711.97 554.27 708.81 557.35 702.82C560.7 696.28 559.29 688.54 559.25 681.5C559.23 678.51 559.12 674.06 556.66 671.85C553.58 669.09 547.33 669.64 543.48 669.37C536.82 668.9 530.13 668.76 523.46 668.38C501.52 667.1 479.45 668.7 457.5 667.73C450.75 667.43 437.27 664.41 432.6 670.11C430.56 672.6 430.27 675.84 429.4 678.81C427.7 684.59 421.4 698.05 422.27 703.33C423.39 710.16 432.12 715.25 436.63 719.85C445.6 729.01 452.87 739.86 457.78 751.72C461.99 761.88 459.97 773.81 456.38 783.82C448.97 804.5 436.75 819.25 414.76 824.37C407.69 826.01 400.76 827.12 393.5 826.29C384.71 825.28 376.75 821.88 369.41 817.06C365.34 814.38 362.02 811.12 357.5 809.16ZM666.55 510.5C662.94 506.29 662.31 499.87 660.75 494.67C657.58 484.07 654.68 473.37 651.71 462.7C641.54 426.12 630.6 389.58 619.23 353.35C615.7 342.1 612.55 330.72 609.02 319.47C607.4 314.35 607 307.5 602.44 304.03C596.71 299.68 588.32 300.21 581.5 300.21C567.83 300.21 554.17 300.19 540.5 300.22C524.17 300.25 507.83 300.31 491.5 300.25C485.25 300.23 476.84 298.34 473.07 304.6C470.01 309.67 469.18 316.73 467.76 322.42C465.45 331.67 463.4 341.08 460.64 350.22C448.98 388.79 439.53 428 428.21 466.66C424.45 479.51 421.61 492.71 418.29 505.69C417 510.73 416.71 516.77 412.5 520.25C407.42 518.79 408.78 516.69 405.39 514.05C402.41 511.73 391.22 507.07 387.5 506.71C360.56 504.16 345.97 535.19 357.11 557.37C362.16 567.43 372.54 572.37 383.5 572.13C388.22 572.03 394.87 571.28 396.4 565.87C397.43 562.25 394.76 559.03 391.53 557.81C385.84 555.65 379.18 558.14 373.9 554.55C362.57 546.84 364.76 528.88 376.19 522.66C392.07 514.02 405.31 535.51 406.66 548.58C406.99 551.72 406.85 555.31 406.66 558.43C406.22 565.53 404.05 572.81 402.24 579.65C398.7 593.06 394.42 606.07 389.52 619.04C385.54 629.6 380.96 639.96 377.1 650.56C372.67 662.76 369.17 675.62 362.14 686.67C356.5 695.54 347.39 702.37 339.37 708.88C336.22 711.44 334.75 715.41 331.1 717.6C324.38 721.63 319.89 717.29 313.37 716.33C304.69 715.06 294.59 720.08 288.67 726.2C275.02 740.3 275.36 772.15 296.65 778.81C309.67 782.88 323.45 775.28 334.39 768.91C338.37 766.59 342.87 763.64 347.5 762.92C356.28 761.54 361.47 770.15 367.14 775.37C373.52 781.25 381.49 785.06 390.34 783.66C404.97 781.35 412.08 768.76 415.22 755.62C416.45 750.49 417.75 744.88 415.7 739.74C410.34 726.3 390.88 728.01 386.02 717.43C383.83 712.65 383.9 705.65 383.88 700.5C383.87 697.26 383.47 693.73 383.95 690.52C386.21 675.55 393.19 659.87 397.81 645.37C400.06 638.3 400.93 627.36 406.6 622.1C410.18 618.77 414.93 618.92 419.5 618.92C427.5 618.9 435.5 618.86 443.5 618.89C466.79 619 490.17 618.91 513.5 618.9C524.42 618.9 535.6 618.21 546.5 618.92C553.49 619.38 555.01 624.69 556.95 630.52C560.5 641.15 562.75 651.36 564.04 662.5C564.63 667.6 565.98 672.59 566.61 677.69C567.28 683.13 567.65 688.58 568.52 694C569.37 699.35 571.58 706.74 569.44 711.96C566.65 718.77 555.24 719.46 549.73 723.26C534.86 733.5 530.35 756.16 540.01 771.47C550.34 787.83 572.23 785.95 587.4 777.93C593.39 774.77 599.17 768.8 605.96 767.51C614.58 765.87 619.12 772.61 625.23 775.33C636.5 780.35 649 784.39 661.5 783.86C672.72 783.37 684.48 780.34 694.28 774.8C702.1 770.37 709.76 761.55 719.42 762.37C726.19 762.95 732.68 768.83 738.28 772.25C753.75 781.7 770.44 790.69 788.42 781.93C802.67 774.99 808.75 757.36 803.8 742.65C801.66 736.26 797.67 732.1 793.41 727.1C790.25 723.37 787.4 720.72 782.71 718.76C779.24 717.31 775.27 716.33 771.5 716.22C764.38 716 757.14 718.78 751.22 713.28C746.74 709.12 744.26 702.57 741.04 697.45C733.61 685.61 726.11 674.11 720.03 661.47C710.66 641.98 704.12 620.89 700.7 599.56C699.51 592.12 697.41 583.17 699.34 575.73C701.33 567.99 710.08 566.55 715.4 561.91C726.21 552.48 728.37 535.48 722.8 522.7C716.06 507.21 701.16 503.73 685.71 506.35C679.31 507.44 673.01 511.57 666.55 510.5ZM558.5 382.19C564.26 385.81 568.72 391.24 573.28 396.24C575.21 398.35 577.92 401.39 577.85 404.47C577.73 409.31 572.94 415.04 570.55 419.05C568.36 422.71 566.71 428.05 562.5 429.54C556.71 427.13 551.98 419.37 547.6 414.89C545.85 413.1 543.48 411.09 543.19 408.4C542.88 405.53 544.62 401.93 545.79 399.33C548.63 392.99 551.4 384.73 558.5 382.19ZM631.7 609.24C647.46 605.83 662.24 617.72 667.65 631.77C675.87 653.08 664.17 681.89 639.42 683.66C598.17 686.59 592.35 617.74 631.7 609.24Z" fill="#a3253c" fill-rule="evenodd" stroke="#a3253c" stroke-width="0.25" stroke-linejoin="round"/>
<path d="M666.55 510.5C673.01 511.57 679.31 507.44 685.71 506.35C701.16 503.73 716.06 507.21 722.8 522.7C728.37 535.48 726.21 552.48 715.4 561.91C710.08 566.55 701.33 567.99 699.34 575.73C697.41 583.17 699.51 592.12 700.7 599.56C704.12 620.89 710.66 641.98 720.03 661.47C726.11 674.11 733.61 685.61 741.04 697.45C744.26 702.57 746.74 709.12 751.22 713.28C757.14 718.78 764.38 716 771.5 716.22C775.27 716.33 779.24 717.31 782.71 718.76C787.4 720.72 790.25 723.37 793.41 727.1C797.67 732.1 801.66 736.26 803.8 742.65C808.75 757.36 802.67 774.99 788.42 781.93C770.44 790.69 753.75 781.7 738.28 772.25C732.68 768.83 726.19 762.95 719.42 762.37C709.76 761.55 702.1 770.37 694.28 774.8C684.48 780.34 672.72 783.37 661.5 783.86C649 784.39 636.5 780.35 625.23 775.33C619.12 772.61 614.58 765.87 605.96 767.51C599.17 768.8 593.39 774.77 587.4 777.93C572.23 785.95 550.34 787.83 540.01 771.47C530.35 756.16 534.86 733.5 549.73 723.26C555.24 719.46 566.65 718.77 569.44 711.96C571.58 706.74 569.37 699.35 568.52 694C567.65 688.58 567.28 683.13 566.61 677.69C565.98 672.59 564.63 667.6 564.04 662.5C562.75 651.36 560.5 641.15 556.95 630.52C555.01 624.69 553.49 619.38 546.5 618.92C535.6 618.21 524.42 618.9 513.5 618.9C490.17 618.91 466.79 619 443.5 618.89C435.5 618.86 427.5 618.9 419.5 618.92C414.93 618.92 410.18 618.77 406.6 622.1C400.93 627.36 400.06 638.3 397.81 645.37C393.19 659.87 386.21 675.55 383.95 690.52C383.47 693.73 383.87 697.26 383.88 700.5C383.9 705.65 383.83 712.65 386.02 717.43C390.88 728.01 410.34 726.3 415.7 739.74C417.75 744.88 416.45 750.49 415.22 755.62C412.08 768.76 404.97 781.35 390.34 783.66C381.49 785.06 373.52 781.25 367.14 775.37C361.47 770.15 356.28 761.54 347.5 762.92C342.87 763.64 338.37 766.59 334.39 768.91C323.45 775.28 309.67 782.88 296.65 778.81C275.36 772.15 275.02 740.3 288.67 726.2C294.59 720.08 304.69 715.06 313.37 716.33C319.89 717.29 324.38 721.63 331.1 717.6C334.75 715.41 336.22 711.44 339.37 708.88C347.39 702.37 356.5 695.54 362.14 686.67C369.17 675.62 372.67 662.76 377.1 650.56C380.96 639.96 385.54 629.6 389.52 619.04C394.42 606.07 398.7 593.06 402.24 579.65C404.05 572.81 406.22 565.53 406.66 558.43C406.85 555.31 406.99 551.72 406.66 548.58C405.31 535.51 392.07 514.02 376.19 522.66C364.76 528.88 362.57 546.84 373.9 554.55C379.18 558.14 385.84 555.65 391.53 557.81C394.76 559.03 397.43 562.25 396.4 565.87C394.87 571.28 388.22 572.03 383.5 572.13C372.54 572.37 362.16 567.43 357.11 557.37C345.97 535.19 360.56 504.16 387.5 506.71C391.22 507.07 402.41 511.73 405.39 514.05C408.78 516.69 407.42 518.79 412.5 520.25C416.71 516.77 417 510.73 418.29 505.69C421.61 492.71 424.45 479.51 428.21 466.66C439.53 428 448.98 388.79 460.64 350.22C463.4 341.08 465.45 331.67 467.76 322.42C469.18 316.73 470.01 309.67 473.07 304.6C476.84 298.34 485.25 300.23 491.5 300.25C507.83 300.31 524.17 300.25 540.5 300.22C554.17 300.19 567.83 300.21 581.5 300.21C588.32 300.21 596.71 299.68 602.44 304.03C607 307.5 607.4 314.35 609.02 319.47C612.55 330.72 615.7 342.1 619.23 353.35C630.6 389.58 641.54 426.12 651.71 462.7C654.68 473.37 657.58 484.07 660.75 494.67C662.31 499.87 662.94 506.29 666.55 510.5ZM595.5 514.25C599.47 517.01 602.65 521.02 605.99 524.51C613.24 532.07 620.59 539.34 629.3 545.2C632.81 547.56 638.89 552.18 643.29 549.88C645.98 548.47 647.32 544.53 648.48 541.93C651.43 535.38 656.65 528.51 656.53 521.06C656.39 512.57 652.56 503.53 650.13 495.44C644.63 477.16 639.78 458.69 634.16 440.43C624.4 408.73 614.88 376.93 605.41 345.16C603.26 337.94 601.03 330.75 598.91 323.53C597.56 318.92 596.76 313.86 592.3 311.19C587.16 308.12 578.29 309.76 572.5 309.77C557.5 309.8 542.5 309.83 527.5 309.81C517.83 309.8 508.17 309.81 498.5 309.77C494.34 309.76 488.69 308.72 484.77 310.35C481.16 311.85 478.44 321.89 477.09 325.52C470.26 343.87 479.21 361.42 484.5 378.98C487.01 387.27 490.07 395.45 492.74 403.69C499.21 423.63 505.19 443.69 512.03 463.5C515.13 472.47 518.27 481.45 521.1 490.5C522.44 494.77 522.55 499.5 525.3 503.26C527.81 506.7 532.21 508.54 535.69 510.82C541.21 514.45 546.5 518.64 551.42 523.04C557.23 528.24 562.7 533.78 567.92 539.58C570.91 542.91 572.94 546.6 577.5 547.65C580.65 545.47 581.69 542.11 583.28 538.77C587.06 530.82 590.03 521.19 595.5 514.25ZM509.7 499.5C510.41 498.41 511.06 497.9 511.18 496.5C511.58 491.96 505.96 477.21 504.24 472.28C495.41 447.05 487.81 421.43 479.48 396.03C477.25 389.23 475.71 382.05 473.12 375.39C471.79 371.97 470.51 368.85 466.64 368.5C462.95 373.57 462.24 382.15 460.59 388.18C456.48 403.17 452.64 418.24 448.67 433.27C445.37 445.74 441.57 458.12 438.08 470.54C435.59 479.39 434.35 488.57 431.75 497.4C427.72 511.09 422.67 525.26 421.14 539.52C420.33 547.14 421.28 554.81 420.7 562.4C420.01 571.49 415.73 583.93 413.72 593.37C412.94 597.02 411.82 599.74 412.24 603.5C419.29 608.22 434.98 606.11 443.5 606.14C467.17 606.2 490.83 606.16 514.5 606.26C522.39 606.29 536.87 608.44 543.54 604.5C544.37 599.36 540.54 594.99 537.89 590.61C533 582.5 527.93 574.51 523.09 566.37C520.08 561.3 517.31 555.06 512.5 551.52C501.13 556.2 498.93 565.89 483.62 563.74C479.42 563.15 475.33 560.97 471.88 558.6C454.5 546.7 459.48 519.7 474.07 507.55C479.81 502.77 488.13 500.2 495.5 499.89C500.22 499.7 505.07 500.44 509.7 499.5ZM631.7 609.24C592.35 617.74 598.17 686.59 639.42 683.66C664.17 681.89 675.87 653.08 667.65 631.77C662.24 617.72 647.46 605.83 631.7 609.24ZM362.5 710.22C356.04 713.13 344.07 727.32 338.52 733C337.04 734.52 335.86 736.32 334.05 737.51C325.1 743.39 320.35 733.61 311.5 732.92C300.59 732.08 294.5 742.64 294.51 752.11C294.52 754.96 294.41 757.93 296.04 760.43C299.68 766.01 307.65 764.21 312.83 762.4C322.76 758.92 331.11 753.02 339.85 747.35C343.24 745.15 347.07 741.02 351.45 741.22C356.08 741.43 359.04 745.49 362.02 748.47C367.39 753.85 373.22 759.6 379.24 764.26C384.07 768 391.5 768.5 395.27 762.8C396.5 760.94 397.36 758.6 398.03 756.48C398.63 754.56 399.04 752.52 398.96 750.5C398.32 735.33 378.85 744.42 372.89 736.65C367.83 730.04 368.69 714.04 362.5 710.22Z" fill="#ffffff" fill-rule="evenodd" stroke="#ffffff" stroke-width="0.25" stroke-linejoin="round"/>
<path d="M595.5 514.25C590.03 521.19 587.06 530.82 583.28 538.77C581.69 542.11 580.65 545.47 577.5 547.65C572.94 546.6 570.91 542.91 567.92 539.58C562.7 533.78 557.23 528.24 551.42 523.04C546.5 518.64 541.21 514.45 535.69 510.82C532.21 508.54 527.81 506.7 525.3 503.26C522.55 499.5 522.44 494.77 521.1 490.5C518.27 481.45 515.13 472.47 512.03 463.5C505.19 443.69 499.21 423.63 492.74 403.69C490.07 395.45 487.01 387.27 484.5 378.98C479.21 361.42 470.26 343.87 477.09 325.52C478.44 321.89 481.16 311.85 484.77 310.35C488.69 308.72 494.34 309.76 498.5 309.77C508.17 309.81 517.83 309.8 527.5 309.81C542.5 309.83 557.5 309.8 572.5 309.77C578.29 309.76 587.16 308.12 592.3 311.19C596.76 313.86 597.56 318.92 598.91 323.53C601.03 330.75 603.26 337.94 605.41 345.16C614.88 376.93 624.4 408.73 634.16 440.43C639.78 458.69 644.63 477.16 650.13 495.44C652.56 503.53 656.39 512.57 656.53 521.06C656.65 528.51 651.43 535.38 648.48 541.93C647.32 544.53 645.98 548.47 643.29 549.88C638.89 552.18 632.81 547.56 629.3 545.2C620.59 539.34 613.24 532.07 605.99 524.51C602.65 521.02 599.47 517.01 595.5 514.25ZM509.7 499.5C505.07 500.44 500.22 499.7 495.5 499.89C488.13 500.2 479.81 502.77 474.07 507.55C459.48 519.7 454.5 546.7 471.88 558.6C475.33 560.97 479.42 563.15 483.62 563.74C498.93 565.89 501.13 556.2 512.5 551.52C517.31 555.06 520.08 561.3 523.09 566.37C527.93 574.51 533 582.5 537.89 590.61C540.54 594.99 544.37 599.36 543.54 604.5C536.87 608.44 522.39 606.29 514.5 606.26C490.83 606.16 467.17 606.2 443.5 606.14C434.98 606.11 419.29 608.22 412.24 603.5C411.82 599.74 412.94 597.02 413.72 593.37C415.73 583.93 420.01 571.49 420.7 562.4C421.28 554.81 420.33 547.14 421.14 539.52C422.67 525.26 427.72 511.09 431.75 497.4C434.35 488.57 435.59 479.39 438.08 470.54C441.57 458.12 445.37 445.74 448.67 433.27C452.64 418.24 456.48 403.17 460.59 388.18C462.24 382.15 462.95 373.57 466.64 368.5C470.51 368.85 471.79 371.97 473.12 375.39C475.71 382.05 477.25 389.23 479.48 396.03C487.81 421.43 495.41 447.05 504.24 472.28C505.96 477.21 511.58 491.96 511.18 496.5C511.06 497.9 510.41 498.41 509.7 499.5ZM558.5 382.19C551.4 384.73 548.63 392.99 545.79 399.33C544.62 401.93 542.88 405.53 543.19 408.4C543.48 411.09 545.85 413.1 547.6 414.89C551.98 419.37 556.71 427.13 562.5 429.54C566.71 428.05 568.36 422.71 570.55 419.05C572.94 415.04 577.73 409.31 577.85 404.47C577.92 401.39 575.21 398.35 573.28 396.24C568.72 391.24 564.26 385.81 558.5 382.19ZM362.5 710.22C368.69 714.04 367.83 730.04 372.89 736.65C378.85 744.42 398.32 735.33 398.96 750.5C399.04 752.52 398.63 754.56 398.03 756.48C397.36 758.6 396.5 760.94 395.27 762.8C391.5 768.5 384.07 768 379.24 764.26C373.22 759.6 367.39 753.85 362.02 748.47C359.04 745.49 356.08 741.43 351.45 741.22C347.07 741.02 343.24 745.15 339.85 747.35C331.11 753.02 322.76 758.92 312.83 762.4C307.65 764.21 299.68 766.01 296.04 760.43C294.41 757.93 294.52 754.96 294.51 752.11C294.5 742.64 300.59 732.08 311.5 732.92C320.35 733.61 325.1 743.39 334.05 737.51C335.86 736.32 337.04 734.52 338.52 733C344.07 727.32 356.04 713.13 362.5 710.22Z" fill="#e0b92e" fill-rule="evenodd" stroke="#e0b92e" stroke-width="0.25" stroke-linejoin="round"/>
</svg>